<svg id='logo' width="1061" height="63" viewBox="0 0 1061 63" fill="none" xmlns="http://www.w3.org/2000/svg">
<mask id="logo" maskUnits="userSpaceOnUse" x="0" y="0" width="1061" height="63" fill="black">
<rect fill="white" width="1061" height="63"/>
<path d="M35.7792 3.7195V44.8906C35.7792 49.4741 34.2828 53.1515 31.29 55.9229C28.2973 58.641 24.3446 60 19.4319 60C14.4628 60 10.4819 58.6143 7.48914 55.8429C4.49638 53.0182 3 49.1809 3 44.331H10.7078C10.7642 47.0491 11.4983 49.2609 12.91 50.9663C14.3781 52.6718 16.5521 53.5245 19.4319 53.5245C22.3118 53.5245 24.4575 52.7251 25.8692 51.1262C27.2809 49.4741 27.9867 47.3955 27.9867 44.8906V3.7195H35.7792Z"/>
<path d="M58.5021 3.7195V38.9748C58.5021 43.9313 59.7726 47.6087 62.3137 50.007C64.9111 52.4053 68.4968 53.6045 73.0706 53.6045C77.588 53.6045 81.1172 52.4053 83.6582 50.007C86.2557 47.6087 87.5545 43.9313 87.5545 38.9748V3.7195H95.2622V38.8948C95.2622 43.5316 94.2741 47.4488 92.2977 50.6466C90.3214 53.791 87.6392 56.136 84.2511 57.6816C80.9196 59.2272 77.1645 60 72.9859 60C68.8074 60 65.0241 59.2272 61.6361 57.6816C58.3045 56.136 55.6505 53.791 53.6742 50.6466C51.7543 47.4488 50.7944 43.5316 50.7944 38.8948V3.7195H58.5021Z"/>
<path d="M154.536 59.4404H146.828L115.828 15.0715V59.4404H108.12V3.63955H115.828L146.828 47.9285V3.63955H154.536V59.4404Z"/>
<path d="M175.383 3.7195V59.4404H167.675V3.7195H175.383Z"/>
<path d="M215.285 60C209.808 60 204.81 58.8008 200.293 56.4025C195.776 53.9509 192.19 50.5666 189.536 46.2496C186.939 41.8794 185.64 36.9762 185.64 31.54C185.64 26.1038 186.939 21.2272 189.536 16.9102C192.19 12.54 195.776 9.15568 200.293 6.75736C204.81 4.30575 209.808 3.07994 215.285 3.07994C220.819 3.07994 225.844 4.30575 230.362 6.75736C234.879 9.15568 238.437 12.5133 241.034 16.8303C243.632 21.1473 244.93 26.0505 244.93 31.54C244.93 37.0295 243.632 41.9327 241.034 46.2496C238.437 50.5666 234.879 53.9509 230.362 56.4025C225.844 58.8008 220.819 60 215.285 60ZM215.285 53.6844C219.407 53.6844 223.106 52.7784 226.381 50.9663C229.712 49.1543 232.31 46.5694 234.173 43.2118C236.093 39.8541 237.053 35.9635 237.053 31.54C237.053 27.0631 236.093 23.1725 234.173 19.8682C232.31 16.5105 229.741 13.9257 226.466 12.1136C223.191 10.3015 219.464 9.39551 215.285 9.39551C211.107 9.39551 207.38 10.3015 204.105 12.1136C200.83 13.9257 198.232 16.5105 196.312 19.8682C194.449 23.1725 193.517 27.0631 193.517 31.54C193.517 35.9635 194.449 39.8541 196.312 43.2118C198.232 46.5694 200.83 49.1543 204.105 50.9663C207.436 52.7784 211.163 53.6844 215.285 53.6844Z"/>
<path d="M286.191 59.4404L272.131 36.6564H262.813V59.4404H255.106V3.7195H274.163C278.624 3.7195 282.379 4.43899 285.429 5.87798C288.534 7.31697 290.849 9.26227 292.374 11.7139C293.899 14.1655 294.661 16.9635 294.661 20.108C294.661 23.9453 293.475 27.3296 291.104 30.2609C288.788 33.1921 285.287 35.1374 280.601 36.0968L295.423 59.4404H286.191ZM262.813 30.8205H274.163C278.342 30.8205 281.476 29.8612 283.565 27.9425C285.654 25.9705 286.699 23.359 286.699 20.108C286.699 16.8036 285.654 14.2454 283.565 12.4334C281.532 10.6213 278.398 9.71529 274.163 9.71529H262.813V30.8205Z"/>
<path d="M360.304 59.4404L346.244 36.6564H336.927V59.4404H329.219V3.7195H348.276C352.737 3.7195 356.492 4.43899 359.542 5.87798C362.647 7.31697 364.963 9.26227 366.487 11.7139C368.012 14.1655 368.774 16.9635 368.774 20.108C368.774 23.9453 367.588 27.3296 365.217 30.2609C362.901 33.1921 359.401 35.1374 354.714 36.0968L369.536 59.4404H360.304ZM336.927 30.8205H348.276C352.455 30.8205 355.589 29.8612 357.678 27.9425C359.768 25.9705 360.812 23.359 360.812 20.108C360.812 16.8036 359.768 14.2454 357.678 12.4334C355.645 10.6213 352.512 9.71529 348.276 9.71529H336.927V30.8205Z"/>
<path d="M388.458 9.63534V28.2623H409.972V34.2581H388.458V53.4446H412.513V59.4404H380.751V3.63955H412.513V9.63534H388.458Z"/>
<path d="M459.073 47.0491H433.324L428.581 59.4404H420.449L441.794 4.03927H450.688L471.947 59.4404H463.816L459.073 47.0491ZM456.871 41.1332L446.198 12.993L435.526 41.1332H456.871Z"/>
<path d="M478.37 31.54C478.37 26.1038 479.669 21.2272 482.266 16.9102C484.864 12.54 488.393 9.12903 492.854 6.67742C497.371 4.22581 502.369 3 507.846 3C514.283 3 519.902 4.46564 524.701 7.39691C529.501 10.3282 533.002 14.4853 535.204 19.8682H525.972C524.334 16.5105 521.963 13.9257 518.857 12.1136C515.808 10.3015 512.138 9.39551 507.846 9.39551C503.724 9.39551 500.025 10.3015 496.75 12.1136C493.475 13.9257 490.906 16.5105 489.042 19.8682C487.179 23.1725 486.247 27.0631 486.247 31.54C486.247 35.9635 487.179 39.8541 489.042 43.2118C490.906 46.5161 493.475 49.0743 496.75 50.8864C500.025 52.6985 503.724 53.6045 507.846 53.6045C512.138 53.6045 515.808 52.7251 518.857 50.9663C521.963 49.1543 524.334 46.5694 525.972 43.2118H535.204C533.002 48.5414 529.501 52.6718 524.701 55.6031C519.902 58.4811 514.283 59.9201 507.846 59.9201C502.369 59.9201 497.371 58.7209 492.854 56.3226C488.393 53.871 484.864 50.4867 482.266 46.1697C479.669 41.8527 478.37 36.9762 478.37 31.54Z"/>
<path d="M583.015 3.7195V9.63534H566.921V59.4404H559.214V9.63534H543.036V3.7195H583.015Z"/>
<path d="M633.464 3.7195C639.901 3.7195 645.463 4.86536 650.15 7.15708C654.893 9.39551 658.507 12.6199 660.992 16.8303C663.533 21.0407 664.803 25.9972 664.803 31.6999C664.803 37.4025 663.533 42.359 660.992 46.5694C658.507 50.7265 654.893 53.9243 650.15 56.1627C645.463 58.3478 639.901 59.4404 633.464 59.4404H615.084V3.7195H633.464ZM633.464 53.4446C641.087 53.4446 646.903 51.5526 650.912 47.7686C654.921 43.9313 656.926 38.575 656.926 31.6999C656.926 24.7714 654.893 19.3619 650.827 15.4713C646.818 11.5806 641.03 9.63534 633.464 9.63534H622.791V53.4446H633.464Z"/>
<path d="M682.678 9.63534V28.2623H704.192V34.2581H682.678V53.4446H706.733V59.4404H674.97V3.63955H706.733V9.63534H682.678Z"/>
<path d="M767.183 3.7195L744.907 59.4404H736.013L713.737 3.7195H721.953L740.502 51.7658L759.052 3.7195H767.183Z"/>
<path d="M783.342 9.63534V28.2623H804.856V34.2581H783.342V53.4446H807.397V59.4404H775.635V3.63955H807.397V9.63534H783.342Z"/>
<path d="M826.768 53.5245H847.435V59.4404H819.06V3.7195H826.768V53.5245Z"/>
<path d="M882.386 60C876.909 60 871.911 58.8008 867.394 56.4025C862.877 53.9509 859.291 50.5666 856.637 46.2496C854.039 41.8794 852.741 36.9762 852.741 31.54C852.741 26.1038 854.039 21.2272 856.637 16.9102C859.291 12.54 862.877 9.15568 867.394 6.75736C871.911 4.30575 876.909 3.07994 882.386 3.07994C887.92 3.07994 892.945 4.30575 897.463 6.75736C901.98 9.15568 905.537 12.5133 908.135 16.8303C910.732 21.1473 912.031 26.0505 912.031 31.54C912.031 37.0295 910.732 41.9327 908.135 46.2496C905.537 50.5666 901.98 53.9509 897.463 56.4025C892.945 58.8008 887.92 60 882.386 60ZM882.386 53.6844C886.508 53.6844 890.207 52.7784 893.482 50.9663C896.813 49.1543 899.411 46.5694 901.274 43.2118C903.194 39.8541 904.154 35.9635 904.154 31.54C904.154 27.0631 903.194 23.1725 901.274 19.8682C899.411 16.5105 896.842 13.9257 893.566 12.1136C890.291 10.3015 886.565 9.39551 882.386 9.39551C878.207 9.39551 874.481 10.3015 871.205 12.1136C867.93 13.9257 865.333 16.5105 863.413 19.8682C861.55 23.1725 860.618 27.0631 860.618 31.54C860.618 35.9635 861.55 39.8541 863.413 43.2118C865.333 46.5694 867.93 49.1543 871.205 50.9663C874.537 52.7784 878.264 53.6844 882.386 53.6844Z"/>
<path d="M961.677 20.0281C961.677 24.6648 959.983 28.5288 956.595 31.6199C953.263 34.6578 948.153 36.1767 941.264 36.1767H929.914V59.4404H922.207V3.7195H941.264C947.927 3.7195 952.981 5.23843 956.426 8.2763C959.927 11.3142 961.677 15.2314 961.677 20.0281ZM941.264 30.1809C945.556 30.1809 948.718 29.3015 950.751 27.5428C952.783 25.784 953.8 23.2791 953.8 20.0281C953.8 13.1529 949.621 9.71529 941.264 9.71529H929.914V30.1809H941.264Z"/>
<path d="M978.965 9.63534V28.2623H1000.48V34.2581H978.965V53.4446H1003.02V59.4404H971.257V3.63955H1003.02V9.63534H978.965Z"/>
<path d="M1045.77 59.4404L1031.71 36.6564H1022.39V59.4404H1014.68V3.7195H1033.74C1038.2 3.7195 1041.96 4.43899 1045.01 5.87798C1048.11 7.31697 1050.43 9.26227 1051.95 11.7139C1053.48 14.1655 1054.24 16.9635 1054.24 20.108C1054.24 23.9453 1053.05 27.3296 1050.68 30.2609C1048.37 33.1921 1044.86 35.1374 1040.18 36.0968L1055 59.4404H1045.77ZM1022.39 30.8205H1033.74C1037.92 30.8205 1041.05 29.8612 1043.14 27.9425C1045.23 25.9705 1046.28 23.359 1046.28 20.108C1046.28 16.8036 1045.23 14.2454 1043.14 12.4334C1041.11 10.6213 1037.98 9.71529 1033.74 9.71529H1022.39V30.8205Z"/>
</mask>
<path d="M35.7792 3.7195V44.8906C35.7792 49.4741 34.2828 53.1515 31.29 55.9229C28.2973 58.641 24.3446 60 19.4319 60C14.4628 60 10.4819 58.6143 7.48914 55.8429C4.49638 53.0182 3 49.1809 3 44.331H10.7078C10.7642 47.0491 11.4983 49.2609 12.91 50.9663C14.3781 52.6718 16.5521 53.5245 19.4319 53.5245C22.3118 53.5245 24.4575 52.7251 25.8692 51.1262C27.2809 49.4741 27.9867 47.3955 27.9867 44.8906V3.7195H35.7792Z" stroke="white" stroke-width="2" mask="url(#path-1-outside-1)"/>
<path d="M58.5021 3.7195V38.9748C58.5021 43.9313 59.7726 47.6087 62.3137 50.007C64.9111 52.4053 68.4968 53.6045 73.0706 53.6045C77.588 53.6045 81.1172 52.4053 83.6582 50.007C86.2557 47.6087 87.5545 43.9313 87.5545 38.9748V3.7195H95.2622V38.8948C95.2622 43.5316 94.2741 47.4488 92.2977 50.6466C90.3214 53.791 87.6392 56.136 84.2511 57.6816C80.9196 59.2272 77.1645 60 72.9859 60C68.8074 60 65.0241 59.2272 61.6361 57.6816C58.3045 56.136 55.6505 53.791 53.6742 50.6466C51.7543 47.4488 50.7944 43.5316 50.7944 38.8948V3.7195H58.5021Z" stroke="white" stroke-width="2" mask="url(#path-1-outside-1)"/>
<path d="M154.536 59.4404H146.828L115.828 15.0715V59.4404H108.12V3.63955H115.828L146.828 47.9285V3.63955H154.536V59.4404Z" stroke="white" stroke-width="2" mask="url(#path-1-outside-1)"/>
<path d="M175.383 3.7195V59.4404H167.675V3.7195H175.383Z" stroke="white" stroke-width="2" mask="url(#path-1-outside-1)"/>
<path d="M215.285 60C209.808 60 204.81 58.8008 200.293 56.4025C195.776 53.9509 192.19 50.5666 189.536 46.2496C186.939 41.8794 185.64 36.9762 185.64 31.54C185.64 26.1038 186.939 21.2272 189.536 16.9102C192.19 12.54 195.776 9.15568 200.293 6.75736C204.81 4.30575 209.808 3.07994 215.285 3.07994C220.819 3.07994 225.844 4.30575 230.362 6.75736C234.879 9.15568 238.437 12.5133 241.034 16.8303C243.632 21.1473 244.93 26.0505 244.93 31.54C244.93 37.0295 243.632 41.9327 241.034 46.2496C238.437 50.5666 234.879 53.9509 230.362 56.4025C225.844 58.8008 220.819 60 215.285 60ZM215.285 53.6844C219.407 53.6844 223.106 52.7784 226.381 50.9663C229.712 49.1543 232.31 46.5694 234.173 43.2118C236.093 39.8541 237.053 35.9635 237.053 31.54C237.053 27.0631 236.093 23.1725 234.173 19.8682C232.31 16.5105 229.741 13.9257 226.466 12.1136C223.191 10.3015 219.464 9.39551 215.285 9.39551C211.107 9.39551 207.38 10.3015 204.105 12.1136C200.83 13.9257 198.232 16.5105 196.312 19.8682C194.449 23.1725 193.517 27.0631 193.517 31.54C193.517 35.9635 194.449 39.8541 196.312 43.2118C198.232 46.5694 200.83 49.1543 204.105 50.9663C207.436 52.7784 211.163 53.6844 215.285 53.6844Z" stroke="white" stroke-width="2" mask="url(#path-1-outside-1)"/>
<path d="M286.191 59.4404L272.131 36.6564H262.813V59.4404H255.106V3.7195H274.163C278.624 3.7195 282.379 4.43899 285.429 5.87798C288.534 7.31697 290.849 9.26227 292.374 11.7139C293.899 14.1655 294.661 16.9635 294.661 20.108C294.661 23.9453 293.475 27.3296 291.104 30.2609C288.788 33.1921 285.287 35.1374 280.601 36.0968L295.423 59.4404H286.191ZM262.813 30.8205H274.163C278.342 30.8205 281.476 29.8612 283.565 27.9425C285.654 25.9705 286.699 23.359 286.699 20.108C286.699 16.8036 285.654 14.2454 283.565 12.4334C281.532 10.6213 278.398 9.71529 274.163 9.71529H262.813V30.8205Z" stroke="white" stroke-width="2" mask="url(#path-1-outside-1)"/>
<path d="M360.304 59.4404L346.244 36.6564H336.927V59.4404H329.219V3.7195H348.276C352.737 3.7195 356.492 4.43899 359.542 5.87798C362.647 7.31697 364.963 9.26227 366.487 11.7139C368.012 14.1655 368.774 16.9635 368.774 20.108C368.774 23.9453 367.588 27.3296 365.217 30.2609C362.901 33.1921 359.401 35.1374 354.714 36.0968L369.536 59.4404H360.304ZM336.927 30.8205H348.276C352.455 30.8205 355.589 29.8612 357.678 27.9425C359.768 25.9705 360.812 23.359 360.812 20.108C360.812 16.8036 359.768 14.2454 357.678 12.4334C355.645 10.6213 352.512 9.71529 348.276 9.71529H336.927V30.8205Z" stroke="white" stroke-width="2" mask="url(#path-1-outside-1)"/>
<path d="M388.458 9.63534V28.2623H409.972V34.2581H388.458V53.4446H412.513V59.4404H380.751V3.63955H412.513V9.63534H388.458Z" stroke="white" stroke-width="2" mask="url(#path-1-outside-1)"/>
<path d="M459.073 47.0491H433.324L428.581 59.4404H420.449L441.794 4.03927H450.688L471.947 59.4404H463.816L459.073 47.0491ZM456.871 41.1332L446.198 12.993L435.526 41.1332H456.871Z" stroke="white" stroke-width="2" mask="url(#path-1-outside-1)"/>
<path d="M478.37 31.54C478.37 26.1038 479.669 21.2272 482.266 16.9102C484.864 12.54 488.393 9.12903 492.854 6.67742C497.371 4.22581 502.369 3 507.846 3C514.283 3 519.902 4.46564 524.701 7.39691C529.501 10.3282 533.002 14.4853 535.204 19.8682H525.972C524.334 16.5105 521.963 13.9257 518.857 12.1136C515.808 10.3015 512.138 9.39551 507.846 9.39551C503.724 9.39551 500.025 10.3015 496.75 12.1136C493.475 13.9257 490.906 16.5105 489.042 19.8682C487.179 23.1725 486.247 27.0631 486.247 31.54C486.247 35.9635 487.179 39.8541 489.042 43.2118C490.906 46.5161 493.475 49.0743 496.75 50.8864C500.025 52.6985 503.724 53.6045 507.846 53.6045C512.138 53.6045 515.808 52.7251 518.857 50.9663C521.963 49.1543 524.334 46.5694 525.972 43.2118H535.204C533.002 48.5414 529.501 52.6718 524.701 55.6031C519.902 58.4811 514.283 59.9201 507.846 59.9201C502.369 59.9201 497.371 58.7209 492.854 56.3226C488.393 53.871 484.864 50.4867 482.266 46.1697C479.669 41.8527 478.37 36.9762 478.37 31.54Z" stroke="white" stroke-width="2" mask="url(#path-1-outside-1)"/>
<path d="M583.015 3.7195V9.63534H566.921V59.4404H559.214V9.63534H543.036V3.7195H583.015Z" stroke="white" stroke-width="2" mask="url(#path-1-outside-1)"/>
<path d="M633.464 3.7195C639.901 3.7195 645.463 4.86536 650.15 7.15708C654.893 9.39551 658.507 12.6199 660.992 16.8303C663.533 21.0407 664.803 25.9972 664.803 31.6999C664.803 37.4025 663.533 42.359 660.992 46.5694C658.507 50.7265 654.893 53.9243 650.15 56.1627C645.463 58.3478 639.901 59.4404 633.464 59.4404H615.084V3.7195H633.464ZM633.464 53.4446C641.087 53.4446 646.903 51.5526 650.912 47.7686C654.921 43.9313 656.926 38.575 656.926 31.6999C656.926 24.7714 654.893 19.3619 650.827 15.4713C646.818 11.5806 641.03 9.63534 633.464 9.63534H622.791V53.4446H633.464Z" stroke="white" stroke-width="2" mask="url(#path-1-outside-1)"/>
<path d="M682.678 9.63534V28.2623H704.192V34.2581H682.678V53.4446H706.733V59.4404H674.97V3.63955H706.733V9.63534H682.678Z" stroke="white" stroke-width="2" mask="url(#path-1-outside-1)"/>
<path d="M767.183 3.7195L744.907 59.4404H736.013L713.737 3.7195H721.953L740.502 51.7658L759.052 3.7195H767.183Z" stroke="white" stroke-width="2" mask="url(#path-1-outside-1)"/>
<path d="M783.342 9.63534V28.2623H804.856V34.2581H783.342V53.4446H807.397V59.4404H775.635V3.63955H807.397V9.63534H783.342Z" stroke="white" stroke-width="2" mask="url(#path-1-outside-1)"/>
<path d="M826.768 53.5245H847.435V59.4404H819.06V3.7195H826.768V53.5245Z" stroke="white" stroke-width="2" mask="url(#path-1-outside-1)"/>
<path d="M882.386 60C876.909 60 871.911 58.8008 867.394 56.4025C862.877 53.9509 859.291 50.5666 856.637 46.2496C854.039 41.8794 852.741 36.9762 852.741 31.54C852.741 26.1038 854.039 21.2272 856.637 16.9102C859.291 12.54 862.877 9.15568 867.394 6.75736C871.911 4.30575 876.909 3.07994 882.386 3.07994C887.92 3.07994 892.945 4.30575 897.463 6.75736C901.98 9.15568 905.537 12.5133 908.135 16.8303C910.732 21.1473 912.031 26.0505 912.031 31.54C912.031 37.0295 910.732 41.9327 908.135 46.2496C905.537 50.5666 901.98 53.9509 897.463 56.4025C892.945 58.8008 887.92 60 882.386 60ZM882.386 53.6844C886.508 53.6844 890.207 52.7784 893.482 50.9663C896.813 49.1543 899.411 46.5694 901.274 43.2118C903.194 39.8541 904.154 35.9635 904.154 31.54C904.154 27.0631 903.194 23.1725 901.274 19.8682C899.411 16.5105 896.842 13.9257 893.566 12.1136C890.291 10.3015 886.565 9.39551 882.386 9.39551C878.207 9.39551 874.481 10.3015 871.205 12.1136C867.93 13.9257 865.333 16.5105 863.413 19.8682C861.55 23.1725 860.618 27.0631 860.618 31.54C860.618 35.9635 861.55 39.8541 863.413 43.2118C865.333 46.5694 867.93 49.1543 871.205 50.9663C874.537 52.7784 878.264 53.6844 882.386 53.6844Z" stroke="white" stroke-width="2" mask="url(#path-1-outside-1)"/>
<path d="M961.677 20.0281C961.677 24.6648 959.983 28.5288 956.595 31.6199C953.263 34.6578 948.153 36.1767 941.264 36.1767H929.914V59.4404H922.207V3.7195H941.264C947.927 3.7195 952.981 5.23843 956.426 8.2763C959.927 11.3142 961.677 15.2314 961.677 20.0281ZM941.264 30.1809C945.556 30.1809 948.718 29.3015 950.751 27.5428C952.783 25.784 953.8 23.2791 953.8 20.0281C953.8 13.1529 949.621 9.71529 941.264 9.71529H929.914V30.1809H941.264Z" stroke="white" stroke-width="2" mask="url(#path-1-outside-1)"/>
<path d="M978.965 9.63534V28.2623H1000.48V34.2581H978.965V53.4446H1003.02V59.4404H971.257V3.63955H1003.02V9.63534H978.965Z" stroke="white" stroke-width="2" mask="url(#path-1-outside-1)"/>
<path d="M1045.77 59.4404L1031.71 36.6564H1022.39V59.4404H1014.68V3.7195H1033.74C1038.2 3.7195 1041.96 4.43899 1045.01 5.87798C1048.11 7.31697 1050.43 9.26227 1051.95 11.7139C1053.48 14.1655 1054.24 16.9635 1054.24 20.108C1054.24 23.9453 1053.05 27.3296 1050.68 30.2609C1048.37 33.1921 1044.86 35.1374 1040.18 36.0968L1055 59.4404H1045.77ZM1022.39 30.8205H1033.74C1037.92 30.8205 1041.05 29.8612 1043.14 27.9425C1045.23 25.9705 1046.28 23.359 1046.28 20.108C1046.28 16.8036 1045.23 14.2454 1043.14 12.4334C1041.11 10.6213 1037.98 9.71529 1033.74 9.71529H1022.39V30.8205Z" stroke="white" stroke-width="2" mask="url(#path-1-outside-1)"/>
</svg>
